<mxfile host="65bd71144e">
    <diagram id="CPJtzeJE9pOkpMqp2GQA" name="Page-1">
        <mxGraphModel dx="1739" dy="561" grid="1" gridSize="10" guides="1" tooltips="1" connect="1" arrows="1" fold="1" page="1" pageScale="1" pageWidth="827" pageHeight="1169" math="0" shadow="0">
            <root>
                <mxCell id="0"/>
                <mxCell id="1" parent="0"/>
                <mxCell id="9" value="Andre Deveau&lt;br&gt;TEJ3M-Unit4-18&lt;br&gt;Dec 2023&lt;br&gt;Full Adder With Chips" style="text;html=1;strokeColor=none;fillColor=none;align=left;verticalAlign=middle;whiteSpace=wrap;rounded=0;" parent="1" vertex="1">
                    <mxGeometry x="188" y="693" width="146" height="30" as="geometry"/>
                </mxCell>
                <mxCell id="35" value="&lt;div style=&quot;text-align: left;&quot;&gt;&lt;font color=&quot;#ffffff&quot;&gt;0 | 0 |&amp;nbsp; 0┃ 0&amp;nbsp; &amp;nbsp; &amp;nbsp; | 0&lt;/font&gt;&lt;/div&gt;&lt;div style=&quot;text-align: left;&quot;&gt;&lt;font color=&quot;#ffffff&quot;&gt;0 | 0 |&amp;nbsp; 1┃ 1&amp;nbsp; &amp;nbsp; &amp;nbsp; | 0&lt;/font&gt;&lt;/div&gt;&lt;div style=&quot;text-align: left;&quot;&gt;&lt;font color=&quot;#ffffff&quot;&gt;0 | 1 |&amp;nbsp; 0┃ 1&amp;nbsp; &amp;nbsp; &amp;nbsp; | 0&lt;/font&gt;&lt;/div&gt;&lt;div style=&quot;text-align: left;&quot;&gt;&lt;font color=&quot;#ffffff&quot;&gt;0 | 1 |&amp;nbsp; 1┃ 0&amp;nbsp; &amp;nbsp; &amp;nbsp; | 1&lt;/font&gt;&lt;/div&gt;&lt;div style=&quot;text-align: left;&quot;&gt;&lt;font color=&quot;#ffffff&quot;&gt;1 | 0 |&amp;nbsp; 0┃ 1&amp;nbsp; &amp;nbsp; &amp;nbsp; | 0&lt;/font&gt;&lt;/div&gt;&lt;div style=&quot;text-align: left;&quot;&gt;&lt;font color=&quot;#ffffff&quot;&gt;1 | 0 |&amp;nbsp; 1┃ 0&amp;nbsp; &amp;nbsp; &amp;nbsp; | 1&lt;/font&gt;&lt;/div&gt;&lt;div style=&quot;text-align: left;&quot;&gt;&lt;font color=&quot;#ffffff&quot;&gt;1 | 1 |&amp;nbsp; 0┃ 0&amp;nbsp; &amp;nbsp; &amp;nbsp; | 1&lt;/font&gt;&lt;/div&gt;&lt;div style=&quot;text-align: left;&quot;&gt;&lt;font color=&quot;#ffffff&quot;&gt;1 | 1 |&amp;nbsp; 1┃ 1&amp;nbsp; &amp;nbsp; &amp;nbsp; | 1&lt;/font&gt;&lt;/div&gt;" style="text;html=1;strokeColor=none;fillColor=none;align=center;verticalAlign=middle;whiteSpace=wrap;rounded=0;" parent="1" vertex="1">
                    <mxGeometry x="13" y="719" width="130" height="90" as="geometry"/>
                </mxCell>
                <mxCell id="122" style="edgeStyle=none;html=1;exitX=0;exitY=0.25;exitDx=0;exitDy=0;exitPerimeter=0;entryX=0;entryY=0.5;entryDx=0;entryDy=0;endArrow=oval;endFill=1;rounded=0;startArrow=none;startFill=0;" edge="1" parent="1" target="126">
                    <mxGeometry relative="1" as="geometry">
                        <Array as="points">
                            <mxPoint x="484" y="261"/>
                        </Array>
                        <mxPoint x="299" y="261" as="sourcePoint"/>
                    </mxGeometry>
                </mxCell>
                <mxCell id="123" style="edgeStyle=none;rounded=0;html=1;endArrow=oval;endFill=1;startArrow=none;startFill=0;" edge="1" parent="1">
                    <mxGeometry relative="1" as="geometry">
                        <mxPoint x="564" y="461" as="targetPoint"/>
                        <mxPoint x="564" y="251" as="sourcePoint"/>
                        <Array as="points">
                            <mxPoint x="564" y="271"/>
                        </Array>
                    </mxGeometry>
                </mxCell>
                <mxCell id="124" style="edgeStyle=none;html=1;exitX=1;exitY=0.12;exitDx=0;exitDy=0;endArrow=oval;endFill=1;startArrow=none;startFill=0;" edge="1" parent="1" source="126">
                    <mxGeometry relative="1" as="geometry">
                        <mxPoint x="644" y="214" as="targetPoint"/>
                    </mxGeometry>
                </mxCell>
                <mxCell id="125" style="edgeStyle=none;rounded=0;jumpStyle=none;html=1;exitX=1;exitY=0.88;exitDx=0;exitDy=0;strokeColor=default;strokeWidth=1;startArrow=none;startFill=0;endArrow=none;endFill=0;endSize=6;" edge="1" parent="1" source="126">
                    <mxGeometry relative="1" as="geometry">
                        <mxPoint x="564" y="247.88372093023258" as="targetPoint"/>
                        <Array as="points">
                            <mxPoint x="564" y="234"/>
                            <mxPoint x="564" y="251"/>
                        </Array>
                    </mxGeometry>
                </mxCell>
                <mxCell id="126" value="" style="shape=mxgraph.electrical.electro-mechanical.twoWaySwitch;aspect=fixed;elSwitchState=2;flipV=1;" vertex="1" parent="1">
                    <mxGeometry x="484" y="211" width="75" height="26" as="geometry"/>
                </mxCell>
                <mxCell id="127" style="edgeStyle=none;html=1;exitX=0;exitY=0.57;exitDx=0;exitDy=0;exitPerimeter=0;endArrow=none;endFill=0;entryX=1;entryY=0.5;entryDx=0;entryDy=0;entryPerimeter=0;" edge="1" parent="1" source="128">
                    <mxGeometry relative="1" as="geometry">
                        <mxPoint x="284" y="461" as="targetPoint"/>
                    </mxGeometry>
                </mxCell>
                <mxCell id="128" value="" style="verticalLabelPosition=bottom;shadow=0;dashed=0;align=center;html=1;verticalAlign=top;shape=mxgraph.electrical.opto_electronics.led_2;pointerEvents=1;" vertex="1" parent="1">
                    <mxGeometry x="304" y="421" width="100" height="70" as="geometry"/>
                </mxCell>
                <mxCell id="129" style="edgeStyle=none;rounded=0;html=1;startArrow=none;startFill=0;endArrow=none;endFill=0;" edge="1" parent="1" source="130">
                    <mxGeometry relative="1" as="geometry">
                        <mxPoint x="584" y="461" as="targetPoint"/>
                    </mxGeometry>
                </mxCell>
                <mxCell id="130" value="" style="pointerEvents=1;verticalLabelPosition=bottom;shadow=0;dashed=0;align=center;html=1;verticalAlign=top;shape=mxgraph.electrical.resistors.resistor_2;" vertex="1" parent="1">
                    <mxGeometry x="394" y="451" width="100" height="20" as="geometry"/>
                </mxCell>
                <mxCell id="131" style="edgeStyle=none;rounded=0;html=1;exitX=1;exitY=0.5;exitDx=0;exitDy=0;startArrow=none;startFill=0;endArrow=none;endFill=0;" edge="1" parent="1" source="133">
                    <mxGeometry relative="1" as="geometry">
                        <mxPoint x="584" y="461" as="targetPoint"/>
                        <mxPoint x="594" y="371" as="sourcePoint"/>
                        <Array as="points">
                            <mxPoint x="644" y="461"/>
                        </Array>
                    </mxGeometry>
                </mxCell>
                <mxCell id="132" style="edgeStyle=none;html=1;exitX=0;exitY=0.5;exitDx=0;exitDy=0;endArrow=none;endFill=0;" edge="1" parent="1" source="133">
                    <mxGeometry relative="1" as="geometry">
                        <mxPoint x="644" y="41" as="targetPoint"/>
                        <Array as="points">
                            <mxPoint x="644" y="221"/>
                        </Array>
                    </mxGeometry>
                </mxCell>
                <mxCell id="133" value="" style="pointerEvents=1;verticalLabelPosition=bottom;shadow=0;dashed=0;align=center;html=1;verticalAlign=top;shape=mxgraph.electrical.miscellaneous.batteryStack;rotation=90;flipV=0;flipH=1;" vertex="1" parent="1">
                    <mxGeometry x="594" y="261" width="100" height="60" as="geometry"/>
                </mxCell>
                <mxCell id="134" value="220 Ω" style="text;strokeColor=none;align=center;fillColor=none;html=1;verticalAlign=middle;whiteSpace=wrap;rounded=0;labelBackgroundColor=none;" vertex="1" parent="1">
                    <mxGeometry x="414" y="481" width="60" height="30" as="geometry"/>
                </mxCell>
                <mxCell id="135" value="Input B" style="text;strokeColor=none;align=center;fillColor=none;html=1;verticalAlign=middle;whiteSpace=wrap;rounded=0;labelBackgroundColor=none;" vertex="1" parent="1">
                    <mxGeometry x="491.5" y="241" width="60" height="30" as="geometry"/>
                </mxCell>
                <mxCell id="136" value="sum" style="text;strokeColor=none;align=center;fillColor=none;html=1;verticalAlign=middle;whiteSpace=wrap;rounded=0;labelBackgroundColor=none;" vertex="1" parent="1">
                    <mxGeometry x="324" y="491" width="60" height="30" as="geometry"/>
                </mxCell>
                <mxCell id="137" value="-" style="text;strokeColor=none;align=center;fillColor=none;html=1;verticalAlign=middle;whiteSpace=wrap;rounded=0;" vertex="1" parent="1">
                    <mxGeometry x="644" y="331" width="60" height="30" as="geometry"/>
                </mxCell>
                <mxCell id="138" value="Input A" style="text;strokeColor=none;align=center;fillColor=none;html=1;verticalAlign=middle;whiteSpace=wrap;rounded=0;labelBackgroundColor=none;" vertex="1" parent="1">
                    <mxGeometry x="514" y="111" width="60" height="30" as="geometry"/>
                </mxCell>
                <mxCell id="139" style="edgeStyle=none;html=1;endArrow=oval;endFill=1;rounded=0;startArrow=none;startFill=0;strokeColor=default;strokeWidth=1;endSize=6;jumpStyle=none;" edge="1" parent="1">
                    <mxGeometry relative="1" as="geometry">
                        <mxPoint x="564" y="351" as="targetPoint"/>
                        <mxPoint x="584" y="111" as="sourcePoint"/>
                        <Array as="points">
                            <mxPoint x="584" y="351"/>
                            <mxPoint x="564" y="351"/>
                        </Array>
                    </mxGeometry>
                </mxCell>
                <mxCell id="140" style="edgeStyle=none;rounded=0;html=1;exitX=1;exitY=0.88;exitDx=0;exitDy=0;startArrow=none;startFill=0;endArrow=none;endFill=0;" edge="1" parent="1" source="145">
                    <mxGeometry relative="1" as="geometry">
                        <mxPoint x="584" y="111" as="targetPoint"/>
                    </mxGeometry>
                </mxCell>
                <mxCell id="141" style="edgeStyle=none;rounded=0;jumpStyle=none;html=1;exitX=1;exitY=0.12;exitDx=0;exitDy=0;strokeColor=default;strokeWidth=1;startArrow=none;startFill=0;endArrow=oval;endFill=1;endSize=6;" edge="1" parent="1" source="145">
                    <mxGeometry relative="1" as="geometry">
                        <mxPoint x="644" y="91" as="targetPoint"/>
                    </mxGeometry>
                </mxCell>
                <mxCell id="142" style="edgeStyle=none;rounded=0;html=1;endArrow=none;endFill=0;startArrow=oval;startFill=1;" edge="1" parent="1">
                    <mxGeometry relative="1" as="geometry">
                        <mxPoint x="269" y="221" as="targetPoint"/>
                        <Array as="points">
                            <mxPoint x="444" y="181"/>
                            <mxPoint x="269" y="181"/>
                        </Array>
                        <mxPoint x="444" y="101" as="sourcePoint"/>
                    </mxGeometry>
                </mxCell>
                <mxCell id="143" style="edgeStyle=none;html=1;exitX=0;exitY=0.5;exitDx=0;exitDy=0;startArrow=none;startFill=0;endArrow=none;endFill=0;" edge="1" parent="1" source="145">
                    <mxGeometry relative="1" as="geometry">
                        <mxPoint x="444" y="101" as="targetPoint"/>
                    </mxGeometry>
                </mxCell>
                <mxCell id="144" style="edgeStyle=none;rounded=0;html=1;exitX=0;exitY=0.5;exitDx=0;exitDy=0;startArrow=none;startFill=0;endArrow=none;endFill=0;fillColor=none;" edge="1" parent="1" source="145">
                    <mxGeometry relative="1" as="geometry">
                        <mxPoint x="144" y="101" as="targetPoint"/>
                    </mxGeometry>
                </mxCell>
                <mxCell id="145" value="" style="shape=mxgraph.electrical.electro-mechanical.twoWaySwitch;aspect=fixed;elSwitchState=2;flipV=1;" vertex="1" parent="1">
                    <mxGeometry x="469" y="88" width="75" height="26" as="geometry"/>
                </mxCell>
                <mxCell id="146" value="" style="edgeStyle=none;orthogonalLoop=1;jettySize=auto;html=1;rounded=0;strokeColor=default;strokeWidth=1;startArrow=none;startFill=0;endArrow=none;endFill=0;endSize=6;jumpStyle=none;" edge="1" parent="1">
                    <mxGeometry width="80" relative="1" as="geometry">
                        <mxPoint x="564" y="251" as="sourcePoint"/>
                        <mxPoint x="564" y="251" as="targetPoint"/>
                        <Array as="points"/>
                    </mxGeometry>
                </mxCell>
                <mxCell id="147" style="edgeStyle=none;html=1;exitX=0;exitY=0.75;exitDx=0;exitDy=0;exitPerimeter=0;endArrow=none;endFill=0;" edge="1" parent="1">
                    <mxGeometry relative="1" as="geometry">
                        <mxPoint x="269.0625" y="211" as="targetPoint"/>
                        <mxPoint x="269" y="261" as="sourcePoint"/>
                    </mxGeometry>
                </mxCell>
                <mxCell id="148" style="edgeStyle=none;rounded=0;html=1;exitX=1;exitY=0.5;exitDx=0;exitDy=0;exitPerimeter=0;entryX=0;entryY=0.25;entryDx=0;entryDy=0;entryPerimeter=0;startArrow=none;startFill=0;endArrow=none;endFill=0;" edge="1" parent="1" source="149" target="167">
                    <mxGeometry relative="1" as="geometry"/>
                </mxCell>
                <mxCell id="149" value="" style="verticalLabelPosition=bottom;shadow=0;dashed=0;align=center;html=1;verticalAlign=top;shape=mxgraph.electrical.logic_gates.logic_gate;operation=xor;rotation=90;" vertex="1" parent="1">
                    <mxGeometry x="234" y="281" width="100" height="60" as="geometry"/>
                </mxCell>
                <mxCell id="150" value="" style="verticalLabelPosition=bottom;shadow=0;dashed=0;align=center;html=1;verticalAlign=top;shape=mxgraph.electrical.opto_electronics.led_2;pointerEvents=1;" vertex="1" parent="1">
                    <mxGeometry x="284" y="571" width="100" height="70" as="geometry"/>
                </mxCell>
                <mxCell id="151" style="edgeStyle=none;rounded=0;html=1;startArrow=none;startFill=0;endArrow=none;endFill=0;" edge="1" parent="1" source="152">
                    <mxGeometry relative="1" as="geometry">
                        <mxPoint x="564" y="611" as="targetPoint"/>
                    </mxGeometry>
                </mxCell>
                <mxCell id="152" value="" style="pointerEvents=1;verticalLabelPosition=bottom;shadow=0;dashed=0;align=center;html=1;verticalAlign=top;shape=mxgraph.electrical.resistors.resistor_2;" vertex="1" parent="1">
                    <mxGeometry x="374" y="601" width="100" height="20" as="geometry"/>
                </mxCell>
                <mxCell id="153" value="" style="edgeStyle=none;orthogonalLoop=1;jettySize=auto;html=1;endArrow=none;endFill=0;" edge="1" parent="1">
                    <mxGeometry width="80" relative="1" as="geometry">
                        <mxPoint x="564" y="454.60009765625" as="sourcePoint"/>
                        <mxPoint x="564" y="611" as="targetPoint"/>
                        <Array as="points"/>
                    </mxGeometry>
                </mxCell>
                <mxCell id="154" value="" style="edgeStyle=none;orthogonalLoop=1;jettySize=auto;html=1;endArrow=none;endFill=0;" edge="1" parent="1" target="157">
                    <mxGeometry width="80" relative="1" as="geometry">
                        <mxPoint x="164" y="331" as="sourcePoint"/>
                        <mxPoint x="164" y="611" as="targetPoint"/>
                        <Array as="points"/>
                    </mxGeometry>
                </mxCell>
                <mxCell id="155" style="edgeStyle=none;html=1;exitX=0;exitY=0.25;exitDx=0;exitDy=0;exitPerimeter=0;entryX=0;entryY=0.5;entryDx=0;entryDy=0;startArrow=none;startFill=0;endArrow=none;endFill=0;rounded=0;" edge="1" parent="1" source="157" target="126">
                    <mxGeometry relative="1" as="geometry">
                        <Array as="points">
                            <mxPoint x="179" y="221"/>
                        </Array>
                    </mxGeometry>
                </mxCell>
                <mxCell id="156" style="edgeStyle=none;rounded=0;html=1;exitX=0;exitY=0.75;exitDx=0;exitDy=0;exitPerimeter=0;startArrow=none;startFill=0;endArrow=none;endFill=0;fillColor=none;strokeColor=default;" edge="1" parent="1" source="157">
                    <mxGeometry relative="1" as="geometry">
                        <mxPoint x="144" y="101" as="targetPoint"/>
                    </mxGeometry>
                </mxCell>
                <mxCell id="157" value="" style="verticalLabelPosition=bottom;shadow=0;dashed=0;align=center;html=1;verticalAlign=top;shape=mxgraph.electrical.logic_gates.logic_gate;operation=and;rotation=90;" vertex="1" parent="1">
                    <mxGeometry x="114" y="256" width="100" height="60" as="geometry"/>
                </mxCell>
                <mxCell id="158" value="" style="edgeStyle=none;html=1;exitX=0;exitY=0.57;exitDx=0;exitDy=0;exitPerimeter=0;endArrow=none;endFill=0;" edge="1" parent="1" source="150">
                    <mxGeometry relative="1" as="geometry">
                        <mxPoint x="294" y="610.875" as="targetPoint"/>
                        <mxPoint x="284" y="610.9000000000001" as="sourcePoint"/>
                    </mxGeometry>
                </mxCell>
                <mxCell id="159" style="edgeStyle=none;html=1;entryX=1;entryY=0.5;entryDx=0;entryDy=0;entryPerimeter=0;endArrow=none;endFill=0;exitX=0;exitY=0.25;exitDx=0;exitDy=0;exitPerimeter=0;rounded=0;" edge="1" parent="1" source="160" target="157">
                    <mxGeometry relative="1" as="geometry">
                        <mxPoint x="164" y="591" as="sourcePoint"/>
                        <Array as="points">
                            <mxPoint x="164" y="596"/>
                        </Array>
                    </mxGeometry>
                </mxCell>
                <mxCell id="160" value="" style="verticalLabelPosition=bottom;shadow=0;dashed=0;align=center;html=1;verticalAlign=top;shape=mxgraph.electrical.logic_gates.logic_gate;operation=or;" vertex="1" parent="1">
                    <mxGeometry x="204" y="581" width="100" height="60" as="geometry"/>
                </mxCell>
                <mxCell id="161" style="edgeStyle=none;rounded=0;html=1;exitX=1;exitY=0.5;exitDx=0;exitDy=0;exitPerimeter=0;entryX=0;entryY=0.75;entryDx=0;entryDy=0;entryPerimeter=0;startArrow=none;startFill=0;endArrow=none;endFill=0;" edge="1" parent="1" source="164" target="160">
                    <mxGeometry relative="1" as="geometry">
                        <Array as="points">
                            <mxPoint x="24" y="626"/>
                        </Array>
                    </mxGeometry>
                </mxCell>
                <mxCell id="162" style="edgeStyle=none;rounded=0;html=1;exitX=0;exitY=0.75;exitDx=0;exitDy=0;exitPerimeter=0;startArrow=none;startFill=0;endArrow=none;endFill=0;" edge="1" parent="1" source="164">
                    <mxGeometry relative="1" as="geometry">
                        <mxPoint x="4" y="51" as="targetPoint"/>
                    </mxGeometry>
                </mxCell>
                <mxCell id="163" style="edgeStyle=none;rounded=0;html=1;exitX=0;exitY=0.25;exitDx=0;exitDy=0;exitPerimeter=0;startArrow=none;startFill=0;endArrow=oval;endFill=1;" edge="1" parent="1" source="164">
                    <mxGeometry relative="1" as="geometry">
                        <mxPoint x="144" y="361" as="targetPoint"/>
                        <Array as="points">
                            <mxPoint x="94" y="296"/>
                            <mxPoint x="94" y="341"/>
                            <mxPoint x="144" y="341"/>
                        </Array>
                    </mxGeometry>
                </mxCell>
                <mxCell id="164" value="" style="verticalLabelPosition=bottom;shadow=0;dashed=0;align=center;html=1;verticalAlign=top;shape=mxgraph.electrical.logic_gates.logic_gate;operation=and;rotation=90;" vertex="1" parent="1">
                    <mxGeometry x="-26" y="316" width="100" height="60" as="geometry"/>
                </mxCell>
                <mxCell id="165" style="edgeStyle=none;rounded=0;html=1;exitX=1;exitY=0.5;exitDx=0;exitDy=0;exitPerimeter=0;endArrow=none;endFill=0;" edge="1" parent="1" source="167">
                    <mxGeometry relative="1" as="geometry">
                        <mxPoint x="284" y="461" as="targetPoint"/>
                    </mxGeometry>
                </mxCell>
                <mxCell id="166" style="edgeStyle=none;rounded=0;html=1;exitX=0;exitY=0.75;exitDx=0;exitDy=0;exitPerimeter=0;startArrow=none;startFill=0;endArrow=oval;endFill=1;" edge="1" parent="1" source="167">
                    <mxGeometry relative="1" as="geometry">
                        <mxPoint x="4" y="121" as="targetPoint"/>
                        <Array as="points">
                            <mxPoint x="74" y="121"/>
                        </Array>
                    </mxGeometry>
                </mxCell>
                <mxCell id="167" value="" style="verticalLabelPosition=bottom;shadow=0;dashed=0;align=center;html=1;verticalAlign=top;shape=mxgraph.electrical.logic_gates.logic_gate;operation=xor;rotation=90;" vertex="1" parent="1">
                    <mxGeometry x="44" y="381" width="100" height="60" as="geometry"/>
                </mxCell>
                <mxCell id="168" style="edgeStyle=none;rounded=0;html=1;exitX=1;exitY=0.88;exitDx=0;exitDy=0;endArrow=oval;endFill=1;startArrow=none;startFill=0;" edge="1" parent="1" source="171">
                    <mxGeometry relative="1" as="geometry">
                        <mxPoint x="564" y="421" as="targetPoint"/>
                        <Array as="points">
                            <mxPoint x="614" y="421"/>
                        </Array>
                    </mxGeometry>
                </mxCell>
                <mxCell id="169" style="edgeStyle=none;rounded=0;html=1;exitX=1;exitY=0.12;exitDx=0;exitDy=0;startArrow=none;startFill=0;endArrow=oval;endFill=1;" edge="1" parent="1" source="171">
                    <mxGeometry relative="1" as="geometry">
                        <mxPoint x="644" y="39" as="targetPoint"/>
                    </mxGeometry>
                </mxCell>
                <mxCell id="170" style="edgeStyle=none;rounded=0;html=1;exitX=0;exitY=0.5;exitDx=0;exitDy=0;startArrow=none;startFill=0;endArrow=oval;endFill=1;" edge="1" parent="1" source="171">
                    <mxGeometry relative="1" as="geometry">
                        <mxPoint x="4" y="51" as="targetPoint"/>
                    </mxGeometry>
                </mxCell>
                <mxCell id="171" value="" style="shape=mxgraph.electrical.electro-mechanical.twoWaySwitch;aspect=fixed;elSwitchState=2;flipV=1;flipH=0;" vertex="1" parent="1">
                    <mxGeometry x="534" y="36" width="75" height="26" as="geometry"/>
                </mxCell>
                <mxCell id="172" value="Cin" style="text;strokeColor=none;align=center;fillColor=none;html=1;verticalAlign=middle;whiteSpace=wrap;rounded=0;labelBackgroundColor=none;" vertex="1" parent="1">
                    <mxGeometry x="514" y="58" width="60" height="30" as="geometry"/>
                </mxCell>
                <mxCell id="174" value="Full Adder with Chips" style="text;strokeColor=none;align=center;fillColor=none;html=1;verticalAlign=middle;whiteSpace=wrap;rounded=0;labelBackgroundColor=none;" vertex="1" parent="1">
                    <mxGeometry x="4" y="654" width="150" height="30" as="geometry"/>
                </mxCell>
                <mxCell id="175" value="&lt;div style=&quot;border-color: rgb(0, 0, 0);&quot;&gt;Cin | A | B┃Sum | Cout&lt;/div&gt;&lt;div style=&quot;border-color: rgb(0, 0, 0);&quot;&gt;--------------------------------&lt;/div&gt;&lt;div style=&quot;border-color: rgb(0, 0, 0);&quot;&gt;&lt;br style=&quot;border-color: rgb(0, 0, 0); color: rgb(240, 240, 240); font-family: Helvetica; font-size: 12px; font-style: normal; font-variant-ligatures: normal; font-variant-caps: normal; font-weight: 400; letter-spacing: normal; orphans: 2; text-align: left; text-indent: 0px; text-transform: none; widows: 2; word-spacing: 0px; -webkit-text-stroke-width: 0px; background-color: rgb(42, 37, 47); text-decoration-thickness: initial; text-decoration-style: initial; text-decoration-color: initial;&quot;&gt;&lt;/div&gt;" style="text;whiteSpace=wrap;html=1;" vertex="1" parent="1">
                    <mxGeometry x="17" y="673" width="160" height="70" as="geometry"/>
                </mxCell>
            </root>
        </mxGraphModel>
    </diagram>
</mxfile>